<?xml version="1.0" encoding="utf-8"?>
<!-- Generator: Adobe Illustrator 22.0.1, SVG Export Plug-In . SVG Version: 6.00 Build 0)  -->
<svg version="1.1" id="Layer_1" xmlns="http://www.w3.org/2000/svg" xmlns:xlink="http://www.w3.org/1999/xlink" x="0px" y="0px"
	 viewBox="0 0 138 244" style="enable-background:new 0 0 138 244;" xml:space="preserve">
<style type="text/css">
	.st0{fill-opacity:0;}
</style>
<rect class="st0" width="138" height="244"/>
<path d="M63.3,81h31.8c7.6,0,14.3,1.5,20.1,4.4c5.9,2.9,10.4,6.9,13.6,12.2c3.3,5.3,4.9,11.4,4.9,18.4s-1.6,13.1-4.9,18.4
	c-3.2,5.3-7.7,9.4-13.6,12.3c-5.8,2.9-12.5,4.3-20.1,4.3H63.3V81z M94.3,137.7c7,0,12.6-1.9,16.7-5.8c4.2-3.9,6.3-9.2,6.3-15.9
	s-2.1-11.9-6.3-15.8c-4.1-3.9-9.7-5.9-16.7-5.9H79.5v43.4H94.3z"/>
<path d="M14,54h39.6v108.6h66.8V194H14V54z"/>
</svg>
